<?xml version="1.0" encoding="UTF-8"?>
<svg id="Layer_2" data-name="Layer 2" xmlns="http://www.w3.org/2000/svg" viewBox="0 0 65 65">
  <defs>
    <style>
      .cls-1 {
        fill: #366960;
      }

      .cls-1, .cls-2 {
        stroke-width: 0px;
      }

      .cls-2 {
        fill: #e2dad4;
      }
    </style>
  </defs>
  <g id="TEXT">
    <g>
      <rect class="cls-1" width="65" height="65" rx="12" ry="12"/>
      <g>
        <path class="cls-2" d="M9.56,13.35c0-1.24.46-2.33,1.38-3.25s2.09-1.38,3.51-1.38,2.61.44,3.57,1.32c.96.88,1.45,1.98,1.45,3.31s-.48,2.43-1.45,3.31c-.97.88-2.16,1.32-3.57,1.32s-2.58-.46-3.51-1.38c-.92-.92-1.38-2-1.38-3.25ZM10.66,23.84h7.72v30.88h-7.72v-30.88Z"/>
        <path class="cls-2" d="M27.26,23.84h7.33v4.95h.13c.73-1.54,1.84-2.88,3.35-4.02,1.5-1.14,3.54-1.71,6.11-1.71,2.06,0,3.81.34,5.24,1.03,1.44.69,2.61,1.59,3.51,2.7.9,1.12,1.54,2.4,1.93,3.86.39,1.46.58,2.98.58,4.57v19.49h-7.72v-15.63c0-.86-.04-1.81-.13-2.86-.09-1.05-.31-2.04-.68-2.96-.36-.92-.93-1.69-1.7-2.32-.77-.62-1.82-.93-3.15-.93s-2.37.21-3.25.64c-.88.43-1.61,1.01-2.19,1.74-.58.73-1,1.57-1.25,2.51-.26.94-.39,1.93-.39,2.96v16.86h-7.72v-30.88Z"/>
      </g>
    </g>
  </g>
</svg>