<svg xmlns="http://www.w3.org/2000/svg" xmlns:xlink="http://www.w3.org/1999/xlink" version="1.1" width="595.28pt" height="841.89pt" viewBox="0 0 595.28 841.89">
<defs>
<clipPath id="clip_5">
<path transform="matrix(1,0,0,-1,0,841.89)" d="M0 0H595.28V841.89H0Z"/>
</clipPath>
<clipPath id="clip_6">
<path transform="matrix(1,0,0,-1,0,841.89)" d="M50.67773 53.89001H544.6023V790.9354H50.67773Z"/>
</clipPath>
</defs>
<g clip-path="url(#clip_5)">
<path transform="matrix(1,0,0,-1,0,841.89)" d="M0 842.78H596V-.2199707H0Z" fill="#ffffff"/>
</g>
<g clip-path="url(#clip_6)">
<text xml:space="preserve" transform="matrix(1 0 -0 1 54 83)" font-size="11" font-family="TimesNewRomanPS" font-weight="bold"><tspan y="0" x="0 9.655801 18.695603 28.351403 37.391206 46.431009 51.807809 60.242609 68.46841 76.903209 82.28001 91.93581 100.97561 110.01541 117.84521 121.69301 130.1278 139.1676 146.9864 155.4212 164.461 169.8378 178.2726 187.3124 196.35219">ORGANIZATIONAL EXPERIENCE</tspan></text>
<text xml:space="preserve" transform="matrix(1 0 -0 1 54 83)" font-size="11" font-family="TimesNewRomanPS" font-weight="bold"><tspan y="0" x="204.8535"> </tspan></text>
<text xml:space="preserve" transform="matrix(1 0 -0 1 54 97)" font-size="11" font-family="TimesNewRomanPS" font-weight="bold"><tspan y="0" x="0 7.337001 14.674002 25.055804 33.611604 43.993406 46.743406 53.462205 60.799207 67.93711 70.68711 76.805309 82.305309 91.46831 97.5865 103.0865 107.96831 112.85011 118.96831 124.46831 127.21831 135.1625 141.2807 144.3365 149.8365 154.7183 159.60012 163.88132 166.93712 170.60012 176.10012 178.85012 182.5131 188.0131 193.5131 199.6313 205.1313 210.0131 213.6761 219.1761 221.9261 224.6761 228.9573 235.0755 241.1937 246.6937 252.81189 257.6937 261.97489 265.0307 270.5307">BEMKM FET Sampoerna University (Jakarta, Indonesia)</tspan></text>
<text xml:space="preserve" transform="matrix(1 0 -0 1 54 97)" font-size="11" font-family="TimesNewRomanPSMT"><tspan y="0" x="274.1943"> </tspan></text>
<text xml:space="preserve" transform="matrix(1 0 -0 1 54 115.8468)" font-size="11" font-family="TimesNewRomanPSMT"><tspan y="0" x="0 7.944201 12.826001 17.707802 23.207802 25.957802 31.457802 35.120805 37.870805 45.207807 48.870805 53.7526 58.6344 61.690198 64.746 70.246 75.12781 77.87781 82.75961 88.25961 93.75961 96.50961 106.29081 111.172618 116.672618 119.72842 124.61022 127.36022 135.30442 138.36022 143.86022 146.91602 151.19722 154.25302 159.75302 165.25302 168.00302 170.20522 172.95522 180.89942 186.39942 191.89942 196.78122 205.33702 210.83702 215.71883 219.38182 222.13182 227.63182 233.13182 238.63182 244.13182 246.88182 250.54482 253.29482 263.07603 267.95783 273.45783 276.20783 281.70783 287.20783 292.70783">Head of Creative and Media Division | November 2022 - May 2023</tspan></text>
<text xml:space="preserve" transform="matrix(1 0 -0 1 54 115.8468)" font-size="11" font-family="TimesNewRomanPSMT"><tspan y="0" x="298.2139"> </tspan></text>
<text xml:space="preserve" transform="matrix(1 0 -0 1 54 134.69355)" font-size="11" font-family="TimesNewRomanPSMT"><tspan y="0" x="0">&#x2022;</tspan></text>
<text xml:space="preserve" transform="matrix(1 0 -0 1 66 134.69355)" font-size="11" font-family="TimesNewRomanPSMT"><tspan y="0" x="0 7.944201 12.826001 17.1072 20.163002 25.663002 31.163002 33.913003 37.576005 43.076005 47.357206 50.413003 55.2948 60.7948 64.4578 69.33961 77.89541 80.64541 86.14541 89.80841 94.690219 100.190219 105.690219 108.440219 113.940219 118.82202 123.10322 126.15902 131.65903 137.15903 139.90903 142.65903 151.21483 156.09664 159.75963 164.64144 170.14144 175.02324 180.52324 186.02324 189.07904 193.36025 198.24205 200.99205 205.87386 211.37386 216.87386 219.62386 222.67966 227.56147 233.06147 237.94327 240.69327 246.19327 251.69327 256.57508 262.07508 270.6309 275.5127 281.0127 284.0685 288.95033 292.00614 295.06196 300.56196 306.06196 310.34315 313.09315 320.43016 327.14897 336.93016 344.87434 354.65553 357.40553 363.5237 370.24253 376.96134 380.01713 384.2983 387.0483 391.9301 397.4301 402.31193 407.81193 410.86775">Design Instagram grand design, merchandise and take documentations BEMKM FET&#x2019;s event.</tspan></text>
<text xml:space="preserve" transform="matrix(1 0 -0 1 66 134.69355)" font-size="11" font-family="TimesNewRomanPSMT"><tspan y="0" x="413.6279"> </tspan></text>
<text xml:space="preserve" transform="matrix(1 0 -0 1 54 153.54022)" font-size="11" font-family="TimesNewRomanPSMT"><tspan y="0" x="0">&#x2022;</tspan></text>
<text xml:space="preserve" transform="matrix(1 0 -0 1 66 153.54022)" font-size="11" font-family="TimesNewRomanPSMT"><tspan y="0" x="0 9.7812 14.663001 20.163002 25.044804 30.544804 35.4266 38.1766 42.4578 47.9578 52.8396 55.895399 60.777196 63.832994 66.58299 75.138797 80.0206 85.5206 88.5764 93.458209">Manage social media.</tspan></text>
<text xml:space="preserve" transform="matrix(1 0 -0 1 66 153.54022)" font-size="11" font-family="TimesNewRomanPSMT"><tspan y="0" x="96.2124"> </tspan></text>
<text xml:space="preserve" transform="matrix(1 0 -0 1 54 172.3869)" font-size="11" font-family="TimesNewRomanPSMT"><tspan y="0" x="0">&#x2022;</tspan></text>
<text xml:space="preserve" transform="matrix(1 0 -0 1 66 172.3869)" font-size="11" font-family="TimesNewRomanPSMT"><tspan y="0" x="0 7.944201 12.826001 15.881802 20.763604 26.263604 31.145405 34.201204 39.083 41.833 44.888799 49.770597 54.051797 59.551797 63.832998 66.58299 71.4648 76.9648 82.4648 85.2148 89.495998 94.995998 100.495998 105.3778 109.0408 114.5408 117.5966 121.8778 126.759609 129.50962 134.39142 137.44722 140.50302 143.25302 148.75302 153.63483 157.91603 160.97183 166.47183 171.97183 176.25304 179.00304 181.75304 186.63484 192.13484 197.63484 200.69065 205.57245 211.07245 214.12825 216.87825 219.62825 224.51006 230.01006 235.51006 238.26006 243.14186 248.64186 254.14186 259.64186 267.58604 271.24903 274.30485 277.36067 280.41648 285.91648 291.41648">Delegate tasks and supervise all designs, content, and copywriting.</tspan></text>
<text xml:space="preserve" transform="matrix(1 0 -0 1 66 172.3869)" font-size="11" font-family="TimesNewRomanPSMT"><tspan y="0" x="294.1748"> </tspan></text>
<text xml:space="preserve" transform="matrix(1 0 -0 1 54 213.78473)" font-size="11" font-family="TimesNewRomanPS" font-weight="bold"><tspan y="0" x="0 9.044201 17.483403 26.142603 34.581804 39.963 47.7862 53.1674 62.2116 70.441799 78.881 84.2622 93.9224 102.9666">CERTIFICATIONS</tspan></text>
<text xml:space="preserve" transform="matrix(1 0 -0 1 54 213.78473)" font-size="11" font-family="TimesNewRomanPS" font-weight="bold"><tspan y="0" x="110.1622"> </tspan></text>
<text xml:space="preserve" transform="matrix(1 0 -0 1 54 227.78473)" font-size="11" font-family="TimesNewRomanPS" font-weight="bold"><tspan y="0" x="0 7.944201 14.062402 19.5624 25.680602 30.562403 33.3124 41.256605 46.1384 51.0202 54.683198 57.738996 61.401994 64.457798 69.3396 75.457798 78.207798 84.9266 89.6104 95.1104 98.7734 103.655208 107.9364 112.2176 115.2734 120.7734 126.891597 132.3916">Adobe Certified Professional</tspan></text>
<text xml:space="preserve" transform="matrix(1 0 -0 1 54 227.78473)" font-size="11" font-family="TimesNewRomanPS" font-weight="bold"><tspan y="0" x="135.4482"> </tspan></text>
<text xml:space="preserve" transform="matrix(1 0 -0 1 54 246.63141)" font-size="11" font-family="TimesNewRomanPSMT"><tspan y="0" x="0 7.944201 11.607201 16.489003 21.989003 27.489003 30.544804 35.4266 38.1766 46.120805 51.0026 55.283803 58.3396 63.8396 69.3396 72.0896 80.6454 83.3954 87.0584 90.114208 93.170009 98.670009 102.9512 106.007 109.670009 114.55181 117.60761 120.663417 126.163417 131.66342 134.41342 139.91342 144.19463 147.25043 152.75043 158.25043 160.39324 168.33744 173.83744 179.33744 184.83744 189.71924 192.46924 196.13224 199.18804 202.24384 207.74384 212.02504 215.08084 218.74384 223.62564 226.68144 229.73725 235.23725 240.73725 243.48725 248.98725 254.48725 259.98725">Graphic Design &#x0026; Illustration using Adobe Illustration 2021</tspan></text>
<text xml:space="preserve" transform="matrix(1 0 -0 1 54 246.63141)" font-size="11" font-family="TimesNewRomanPSMT"><tspan y="0" x="265.4932"> </tspan></text>
<text xml:space="preserve" transform="matrix(1 0 -0 1 54 284.32484)" font-size="11" font-family="TimesNewRomanPS" font-weight="bold"><tspan y="0" x="0 7.944201 12.826001 17.707802 21.370802 24.426604 28.089604 31.145405 36.027204 41.527204 45.1902 50.072 52.822 58.322 61.985 64.735 72.6792 76.960399 80.0162 87.960399 95.904598 98.654598 109.0364 114.5364 118.8176 122.4806 127.362407 132.2442 137.7442">Certificate of UI/UX Mastery </tspan></text>
<text xml:space="preserve" transform="matrix(1 0 -0 1 54 284.32484)" font-size="11" font-family="TimesNewRomanPS" font-weight="bold"><tspan y="0" x="140.4971"> </tspan></text>
<text xml:space="preserve" transform="matrix(1 0 -0 1 54 303.17164)" font-size="11" font-family="TimesNewRomanPSMT"><tspan y="0" x="0 7.944201 11.607201 14.663001 22.6072 30.551402 33.3014 43.0826 48.5826 54.7008 60.2008 63.2566 66.3124 69.3682 72.1182 75.781208 81.281208 84.337009 89.21881 94.71881 99.00001 102.05581 107.55581 112.437618 115.187618 122.52461 128.02462 133.52462 136.58042 141.46222 146.34403 154.89983">UI/UX MySkill Intensive Bootcamp</tspan></text>
<text xml:space="preserve" transform="matrix(1 0 -0 1 54 303.17164)" font-size="11" font-family="TimesNewRomanPSMT"><tspan y="0" x="160.4023"> </tspan></text>
<text xml:space="preserve" transform="matrix(1 0 -0 1 54 340.86503)" font-size="11" font-family="TimesNewRomanPS" font-weight="bold"><tspan y="0" x="0 7.944201 12.826001 17.707802 21.370802 24.426604 28.089604 31.145405 36.027204 41.527204 45.1902 50.072 52.822 58.322 61.985 64.735 72.6792 75.735 81.235 84.2908 87.953807 93.453807 96.509609 99.259609 109.64141 115.14141 120.02322 126.14141 131.02321 134.6862 137.742 143.8602">Certificate of Digital Marketing</tspan></text>
<text xml:space="preserve" transform="matrix(1 0 -0 1 54 340.86503)" font-size="11" font-family="TimesNewRomanPS" font-weight="bold"><tspan y="0" x="149.3647"> </tspan></text>
<text xml:space="preserve" transform="matrix(1 0 -0 1 54 362.453)" font-size="12" font-family="TimesNewRomanPSMT"><tspan y="0" x="0 6.674401 12.6744 16.008002 19.341603 24.012001 27.345602 32.671205 37.996805 43.996805 46.996805 55.663206 58.996809 64.99681 68.33041 71.664 76.9896 80.3232 83.3232 93.9936 99.3192 103.3152 109.3152 114.6408 117.974399 121.30799 127.30799 133.30799 136.30799 146.97838 152.97838 159.65277 165.65277 168.98638 172.31998 175.65358 178.65358 182.64958 188.64958 191.98319 197.30879 203.30879 207.97919 211.31279 217.31279 222.6384 225.6384 233.6424 239.6424 245.6424 248.976 254.3016 259.6272 268.9608">Fullstack Digital Marketing MySkill Intensive Bootcamp</tspan></text>
<text xml:space="preserve" transform="matrix(1 0 -0 1 54 362.453)" font-size="12" font-family="TimesNewRomanPSMT"><tspan y="0" x="274.9688"> </tspan></text>
<text xml:space="preserve" transform="matrix(1 0 -0 1 54 406.5549)" font-size="12" font-family="TimesNewRomanPS" font-weight="bold"><tspan y="0" x="0 7.8744008 18.412802 24.283204 33.489606 42.696008">SKILLS</tspan></text>
<text xml:space="preserve" transform="matrix(1 0 -0 1 54 406.5549)" font-size="12" font-family="TimesNewRomanPS" font-weight="bold"><tspan y="0" x="50.55938"> </tspan></text>
<text xml:space="preserve" transform="matrix(1 0 -0 1 54 420.81373)" font-size="11" font-family="TimesNewRomanPSMT"><tspan y="0" x="0">&#x2022;</tspan></text>
<text xml:space="preserve" transform="matrix(1 0 -0 1 66 420.81373)" font-size="11" font-family="TimesNewRomanPSMT"><tspan y="0" x="0 7.337001 11.000001 15.881801 20.763602 23.819403 26.875205 32.375207 37.257005 40.007005 45.507005 50.3888 54.670003 57.7258 63.2258">Creative design</tspan></text>
<text xml:space="preserve" transform="matrix(1 0 -0 1 66 420.81373)" font-size="11" font-family="TimesNewRomanPSMT"><tspan y="0" x="68.72852"> </tspan></text>
<text xml:space="preserve" transform="matrix(1 0 -0 1 54 439.6604)" font-size="11" font-family="TimesNewRomanPSMT"><tspan y="0" x="0">&#x2022;</tspan></text>
<text xml:space="preserve" transform="matrix(1 0 -0 1 66 439.6604)" font-size="11" font-family="TimesNewRomanPSMT"><tspan y="0" x="0 7.337001 11.000001 15.881801 21.381802 26.881802 29.937603 35.437604 40.937604">Branding </tspan></text>
<text xml:space="preserve" transform="matrix(1 0 -0 1 66 439.6604)" font-size="11" font-family="TimesNewRomanPSMT"><tspan y="0" x="43.68848"> </tspan></text>
<text xml:space="preserve" transform="matrix(1 0 -0 1 54 458.5072)" font-size="11" font-family="TimesNewRomanPSMT"><tspan y="0" x="0">&#x2022;</tspan></text>
<text xml:space="preserve" transform="matrix(1 0 -0 1 66 458.5072)" font-size="11" font-family="TimesNewRomanPSMT"><tspan y="0" x="0 3.663 6.7188007 9.774601 15.274601 19.5558 22.6116 26.274601 31.156403 34.2122 37.267999 42.767999">Illustration</tspan></text>
<text xml:space="preserve" transform="matrix(1 0 -0 1 66 458.5072)" font-size="11" font-family="TimesNewRomanPSMT"><tspan y="0" x="48.27002"> </tspan></text>
<text xml:space="preserve" transform="matrix(1 0 -0 1 54 477.3539)" font-size="11" font-family="TimesNewRomanPSMT"><tspan y="0" x="0">&#x2022;</tspan></text>
<text xml:space="preserve" transform="matrix(1 0 -0 1 66 477.3539)" font-size="11" font-family="TimesNewRomanPSMT"><tspan y="0" x="0 6.118201 11.6182 17.1182 20.174002 25.674002 31.174002 34.837 39.7188 45.2188 50.7188">Photography</tspan></text>
<text xml:space="preserve" transform="matrix(1 0 -0 1 66 477.3539)" font-size="11" font-family="TimesNewRomanPSMT"><tspan y="0" x="56.21924"> </tspan></text>
<text xml:space="preserve" transform="matrix(1 0 -0 1 54 515.0473)" font-size="11" font-family="TimesNewRomanPS" font-weight="bold"><tspan y="0" x="0 6.118201 11.6182 15.2812 18.9442 26.888401 32.3884 37.0722">Software</tspan></text>
<text xml:space="preserve" transform="matrix(1 0 -0 1 54 515.0473)" font-size="11" font-family="TimesNewRomanPS" font-weight="bold"><tspan y="0" x="41.95361"> </tspan></text>
<text xml:space="preserve" transform="matrix(1 0 -0 1 54 535.0473)" font-size="11" font-family="TimesNewRomanPSMT"><tspan y="0" x="0">&#x2022;</tspan></text>
<text xml:space="preserve" transform="matrix(1 0 -0 1 66 535.0473)" font-size="11" font-family="TimesNewRomanPSMT"><tspan y="0" x="0 7.944201 13.4442009 18.9442 24.4442 29.326003 32.076005 38.194208 43.694208 49.194208 52.250005 57.750005 62.031206 67.531208 73.031208">Adobe Photoshop</tspan></text>
<text xml:space="preserve" transform="matrix(1 0 -0 1 66 535.0473)" font-size="11" font-family="TimesNewRomanPSMT"><tspan y="0" x="78.53076"> </tspan></text>
<text xml:space="preserve" transform="matrix(1 0 -0 1 54 553.8941)" font-size="11" font-family="TimesNewRomanPSMT"><tspan y="0" x="0">&#x2022;</tspan></text>
<text xml:space="preserve" transform="matrix(1 0 -0 1 66 553.8941)" font-size="11" font-family="TimesNewRomanPSMT"><tspan y="0" x="0 7.944201 13.4442009 18.9442 24.4442 29.326003 32.076005 35.739007 38.794805 41.8506 47.3506 51.6318 54.6876 58.3506 63.2324 66.2882 71.7882 75.4512">Adobe Illustrator </tspan></text>
<text xml:space="preserve" transform="matrix(1 0 -0 1 66 553.8941)" font-size="11" font-family="TimesNewRomanPSMT"><tspan y="0" x="78.20312"> </tspan></text>
<text xml:space="preserve" transform="matrix(1 0 -0 1 54 572.74087)" font-size="11" font-family="TimesNewRomanPSMT"><tspan y="0" x="0">&#x2022;</tspan></text>
<text xml:space="preserve" transform="matrix(1 0 -0 1 66 572.74087)" font-size="11" font-family="TimesNewRomanPSMT"><tspan y="0" x="0 7.944201 11.607201 14.663001 19.544802 23.207802 25.957802 32.6766 36.1405 39.803499 44.685297 49.567094 52.62289">After Effects</tspan></text>
<text xml:space="preserve" transform="matrix(1 0 -0 1 66 572.74087)" font-size="11" font-family="TimesNewRomanPSMT"><tspan y="0" x="56.90674"> </tspan></text>
<text xml:space="preserve" transform="matrix(1 0 -0 1 54 591.5875)" font-size="11" font-family="TimesNewRomanPSMT"><tspan y="0" x="0">&#x2022;</tspan></text>
<text xml:space="preserve" transform="matrix(1 0 -0 1 66 591.5875)" font-size="11" font-family="TimesNewRomanPSMT"><tspan y="0" x="0 6.118201 9.174001 14.674001 23.229804">Figma</tspan></text>
<text xml:space="preserve" transform="matrix(1 0 -0 1 66 591.5875)" font-size="11" font-family="TimesNewRomanPSMT"><tspan y="0" x="28.1123"> </tspan></text>
<text xml:space="preserve" transform="matrix(1 0 -0 1 54 610.4343)" font-size="11" font-family="TimesNewRomanPSMT"><tspan y="0" x="0">&#x2022;</tspan></text>
<text xml:space="preserve" transform="matrix(1 0 -0 1 66 610.4343)" font-size="11" font-family="TimesNewRomanPSMT"><tspan y="0" x="0 7.337001 10.392801 15.274602 20.774601 26.274601 31.156403">Blender</tspan></text>
</g>
</svg>
