<?xml version="1.0" encoding="UTF-8"?>
<svg id="Layer_2" data-name="Layer 2" xmlns="http://www.w3.org/2000/svg" viewBox="0 0 65 65">
  <defs>
    <style>
      .cls-1 {
        fill: #366960;
      }

      .cls-1, .cls-2 {
        stroke-width: 0px;
      }

      .cls-2 {
        fill: #e2dad4;
      }
    </style>
  </defs>
  <g id="TEXT">
    <g>
      <rect class="cls-1" width="65" height="65" rx="12" ry="12"/>
      <g>
        <path class="cls-2" d="M6.09,43.04c.38-1.5,1.42-2.47,2.61-3.38,5.95-4.53,11.87-9.09,17.8-13.64.1-.07.19-.15.39-.31-.27-.01-.44-.03-.61-.03-3.25,0-6.5.01-9.74,0-.44,0-.9-.06-1.32-.19-1.53-.49-2.05-2.01-1.15-3.34.76-1.12,1.86-1.68,3.19-1.7,2.03-.04,4.06-.02,6.08-.02,4.81,0,9.62-.01,14.44-.02.15,0,.31,0,.46,0,.05-.06.11-.12.16-.18-.13-.06-.29-.1-.4-.18-2.07-1.68-4.11-3.39-6.21-5.02-1.48-1.14-1.13-2.78.35-3.52,1.29-.65,2.62-.69,3.8.21,5.68,4.34,11.38,8.65,16.98,13.09,3.44,2.73,5.42,6.38,5.91,10.78.02.15.06.3.09.44v2.37c-.03.11-.08.23-.09.34-.35,3.33-1.61,6.3-3.85,8.77-5.18,5.71-11.68,7.51-19.09,5.89-5.3-1.16-9.36-4.18-11.96-9-1.06-1.97-1.71-4.08-1.62-6.37.01-.33.06-.66.09-1.08-.21.16-.34.26-.47.37-3.23,2.64-6.46,5.29-9.7,7.93-.41.33-.87.63-1.35.84-2.15.96-3.91.23-4.77-1.92v-1.13ZM40.19,45.99c2.86-.02,5.22-.71,7.3-2.23,5.14-3.73,5.66-10.62,1.14-14.95-4.29-4.11-11.6-4.2-15.99-.2-3.9,3.55-4.44,9.08-1.21,13.14,2.3,2.89,5.42,4.16,8.76,4.24Z"/>
        <path class="cls-2" d="M47.88,35.98c-.12,2.2-1.44,4.05-3.74,5.23-2.71,1.38-6.1.93-8.38-1.07-2.94-2.57-2.82-7.02.24-9.45,3.38-2.67,8.39-2.03,10.79,1.37.73,1.04,1.1,2.2,1.09,3.92Z"/>
      </g>
    </g>
  </g>
</svg>