<?xml version="1.0" encoding="UTF-8"?>
<svg id="Layer_2" data-name="Layer 2" xmlns="http://www.w3.org/2000/svg" viewBox="0 0 65 65">
  <defs>
    <style>
      .cls-1 {
        fill: #366960;
      }

      .cls-1, .cls-2 {
        stroke-width: 0px;
      }

      .cls-2 {
        fill: #e2dad4;
      }
    </style>
  </defs>
  <g id="TEXT">
    <g>
      <rect class="cls-1" width="65" height="65" rx="12" ry="12"/>
      <path class="cls-2" d="M25.48,56.38h-.98s-.05-.02-.08-.02c-.33-.04-.67-.06-.99-.12-2.22-.41-4.03-1.5-5.42-3.27-1.12-1.42-1.72-3.05-1.85-4.85-.06-.89.01-1.78.23-2.65.56-2.25,1.8-4.02,3.72-5.31.07-.04.13-.09.2-.13-2.67-1.81-4.16-4.3-4.16-7.53,0-3.23,1.48-5.73,4.16-7.52-.05-.03-.1-.07-.15-.1-1.07-.69-1.96-1.57-2.63-2.65-1.26-2.01-1.68-4.19-1.21-6.52.42-2.09,1.47-3.81,3.13-5.14,1.62-1.3,3.48-1.94,5.55-1.94,4.98,0,9.97,0,14.95,0,.54,0,1.08.04,1.61.14,1.77.32,3.31,1.1,4.6,2.35,1.58,1.54,2.46,3.42,2.66,5.62.01.16.03.31.04.47v.61s-.02.07-.02.11c-.06.45-.08.91-.18,1.35-.52,2.4-1.82,4.28-3.88,5.64-.03.02-.07.05-.11.08.05.04.09.06.13.09.59.38,1.13.82,1.61,1.33,1.41,1.5,2.22,3.28,2.41,5.33.01.14.03.28.04.41v.65s-.02.05-.02.08c-.05.42-.07.85-.15,1.27-.41,2.12-1.45,3.89-3.14,5.23-2.05,1.63-4.38,2.24-6.97,1.84-1.74-.27-3.26-1.03-4.56-2.22-.06-.06-.12-.11-.2-.18v.17c0,2.86,0,5.73,0,8.59,0,.73-.09,1.45-.28,2.15-.56,2.13-1.74,3.84-3.55,5.1-1.19.83-2.52,1.32-3.96,1.49-.18.02-.37.04-.55.07ZM31.17,11.28c-.06,0-.11,0-.17,0-1.98,0-3.96,0-5.94,0-1.78,0-3.31.63-4.55,1.92-1.22,1.28-1.79,2.83-1.7,4.6.08,1.62.72,3,1.89,4.13,1.17,1.13,2.58,1.71,4.2,1.73,2.05.02,4.1,0,6.15,0,.04,0,.08,0,.12,0v-12.37ZM33.83,23.65h.13c2.05,0,4.09,0,6.14,0,.27,0,.55-.02.82-.07,1.54-.24,2.83-.95,3.83-2.14,1.18-1.42,1.64-3.06,1.38-4.89-.2-1.4-.83-2.59-1.85-3.56-1.16-1.1-2.55-1.68-4.15-1.7-2.06-.02-4.12,0-6.18,0-.04,0-.08,0-.13,0v12.37ZM31.17,26.31c-.06,0-.1,0-.15,0-2,0-4.01,0-6.01,0-.22,0-.45,0-.67.03-1.51.18-2.8.79-3.84,1.91-1.32,1.41-1.88,3.1-1.64,5.01.38,3.12,3.01,5.42,6.14,5.42,2.02,0,4.03,0,6.05,0,.04,0,.08,0,.13,0v-12.37ZM31.17,41.35h-.13c-2.03,0-4.06,0-6.1,0-.39,0-.79.04-1.17.12-1.46.29-2.68,1.02-3.61,2.18-1.12,1.41-1.56,3.01-1.3,4.79.21,1.48.89,2.73,2.02,3.72,1.11.98,2.41,1.51,3.89,1.55,1.94.05,3.58-.66,4.87-2.11,1.04-1.18,1.53-2.58,1.54-4.15,0-1.99,0-3.98,0-5.97v-.14ZM33.83,32.49c0,3.42,2.77,6.2,6.19,6.19,3.44-.01,6.14-2.77,6.18-6.11.04-3.43-2.71-6.25-6.18-6.26-3.41-.01-6.19,2.77-6.19,6.18Z"/>
    </g>
  </g>
</svg>